# xmcd CD database file
#
# Track frame offsets:
#	150
#	27561
#	50169
#	73500
#	103233
#	134607
#	160155
#	190095
#
# Disc length: 3017 seconds
#
# Revision: 1
# Processed by: cddbd v1.5.1PL0 Copyright (c) Steve Scherf et al.
# Submitted via: CDex 1.51
#
DISCID=760bc708
DTITLE=Smietana and Styla - Kind Of Life
DYEAR=1998
DGENRE=Jazz
TTITLE0=Duza zaba
TTITLE1=Krakowianin wegetarianin
TTITLE2=Czasem w zimie czasem w lecie
TTITLE3=Szeryf Krupa
TTITLE4=Delfin maly
TTITLE5=Touch of touch
TTITLE6=Ziemianin Marsjanin
TTITLE7=Dudek wieczorowa pora
EXTD=YEAR: 1998
EXTT0=
EXTT1=
EXTT2=
EXTT3=
EXTT4=
EXTT5=
EXTT6=
EXTT7=
PLAYORDER=
